<svg xmlns="http://www.w3.org/2000/svg" width="1920" height="1080" viewBox="0 0 1920 1080"><rect width="1920" height="1080" fill="#0B0F0E"/><rect x="8" y="159.5" width="48" height="761" rx="24" fill="#B8F56F" fill-opacity="0.200"/><rect x="72" y="144.5" width="48" height="791" rx="24" fill="#B8F56F" fill-opacity="0.193"/><rect x="136" y="197" width="48" height="686" rx="24" fill="#B8F56F" fill-opacity="0.186"/><rect x="200" y="170" width="48" height="740" rx="24" fill="#B8F56F" fill-opacity="0.179"/><rect x="264" y="372" width="48" height="336" rx="24" fill="#B8F56F" fill-opacity="0.172"/><rect x="328" y="348.5" width="48" height="383" rx="24" fill="#B8F56F" fill-opacity="0.166"/><rect x="392" y="254.5" width="48" height="571" rx="24" fill="#B8F56F" fill-opacity="0.159"/><rect x="456" y="322.5" width="48" height="435" rx="24" fill="#B8F56F" fill-opacity="0.152"/><rect x="520" y="157.5" width="48" height="765" rx="24" fill="#B8F56F" fill-opacity="0.145"/><rect x="584" y="145" width="48" height="790" rx="24" fill="#B8F56F" fill-opacity="0.138"/><rect x="648" y="254.5" width="48" height="571" rx="24" fill="#B8F56F" fill-opacity="0.131"/><rect x="712" y="205" width="48" height="670" rx="24" fill="#B8F56F" fill-opacity="0.124"/><rect x="776" y="452" width="48" height="48" rx="12" fill="#B8F56F" fill-opacity="0.117"/><rect x="776" y="516" width="48" height="48" rx="12" fill="#B8F56F" fill-opacity="0.117"/><rect x="776" y="580" width="48" height="48" rx="12" fill="#B8F56F" fill-opacity="0.117"/><rect x="776" y="644" width="48" height="48" rx="12" fill="#B8F56F" fill-opacity="0.117"/><rect x="776" y="900" width="48" height="48" rx="12" fill="#131B16" fill-opacity="1.000"/><rect x="840" y="196" width="48" height="48" rx="12" fill="#131B16" fill-opacity="1.000"/><rect x="840" y="260" width="48" height="48" rx="12" fill="#131B16" fill-opacity="1.000"/><rect x="840" y="452" width="48" height="48" rx="12" fill="#B8F56F" fill-opacity="0.110"/><rect x="840" y="516" width="48" height="48" rx="12" fill="#B8F56F" fill-opacity="0.110"/><rect x="840" y="580" width="48" height="48" rx="12" fill="#B8F56F" fill-opacity="0.110"/><rect x="840" y="644" width="48" height="48" rx="12" fill="#B8F56F" fill-opacity="0.110"/><rect x="840" y="900" width="48" height="48" rx="12" fill="#131B16" fill-opacity="1.000"/><rect x="904" y="196" width="48" height="48" rx="12" fill="#131B16" fill-opacity="1.000"/><rect x="904" y="260" width="48" height="48" rx="12" fill="#B8F56F" fill-opacity="0.102"/><rect x="904" y="324" width="48" height="48" rx="12" fill="#B8F56F" fill-opacity="0.102"/><rect x="904" y="388" width="48" height="48" rx="12" fill="#B8F56F" fill-opacity="0.102"/><rect x="904" y="452" width="48" height="48" rx="12" fill="#B8F56F" fill-opacity="0.102"/><rect x="904" y="516" width="48" height="48" rx="12" fill="#B8F56F" fill-opacity="0.102"/><rect x="904" y="580" width="48" height="48" rx="12" fill="#B8F56F" fill-opacity="0.102"/><rect x="904" y="644" width="48" height="48" rx="12" fill="#B8F56F" fill-opacity="0.102"/><rect x="904" y="708" width="48" height="48" rx="12" fill="#B8F56F" fill-opacity="0.102"/><rect x="904" y="772" width="48" height="48" rx="12" fill="#B8F56F" fill-opacity="0.102"/><rect x="904" y="836" width="48" height="48" rx="12" fill="#B8F56F" fill-opacity="0.102"/><rect x="904" y="900" width="48" height="48" rx="12" fill="#131B16" fill-opacity="1.000"/><rect x="968" y="68" width="48" height="48" rx="12" fill="#131B16" fill-opacity="1.000"/><rect x="968" y="196" width="48" height="48" rx="12" fill="#131B16" fill-opacity="1.000"/><rect x="968" y="260" width="48" height="48" rx="12" fill="#B8F56F" fill-opacity="0.095"/><rect x="968" y="324" width="48" height="48" rx="12" fill="#B8F56F" fill-opacity="0.095"/><rect x="968" y="388" width="48" height="48" rx="12" fill="#B8F56F" fill-opacity="0.095"/><rect x="968" y="452" width="48" height="48" rx="12" fill="#B8F56F" fill-opacity="0.095"/><rect x="968" y="516" width="48" height="48" rx="12" fill="#B8F56F" fill-opacity="0.095"/><rect x="968" y="580" width="48" height="48" rx="12" fill="#B8F56F" fill-opacity="0.095"/><rect x="968" y="644" width="48" height="48" rx="12" fill="#B8F56F" fill-opacity="0.095"/><rect x="968" y="708" width="48" height="48" rx="12" fill="#B8F56F" fill-opacity="0.095"/><rect x="968" y="772" width="48" height="48" rx="12" fill="#B8F56F" fill-opacity="0.095"/><rect x="968" y="836" width="48" height="48" rx="12" fill="#B8F56F" fill-opacity="0.095"/><rect x="968" y="1028" width="48" height="48" rx="12" fill="#131B16" fill-opacity="1.000"/><rect x="1032" y="68" width="48" height="48" rx="12" fill="#131B16" fill-opacity="1.000"/><rect x="1032" y="132" width="48" height="48" rx="12" fill="#B8F56F" fill-opacity="0.087"/><rect x="1032" y="196" width="48" height="48" rx="12" fill="#B8F56F" fill-opacity="0.087"/><rect x="1032" y="260" width="48" height="48" rx="12" fill="#B8F56F" fill-opacity="0.087"/><rect x="1032" y="324" width="48" height="48" rx="12" fill="#B8F56F" fill-opacity="0.087"/><rect x="1032" y="388" width="48" height="48" rx="12" fill="#B8F56F" fill-opacity="0.087"/><rect x="1032" y="452" width="48" height="48" rx="12" fill="#B8F56F" fill-opacity="0.087"/><rect x="1032" y="516" width="48" height="48" rx="12" fill="#B8F56F" fill-opacity="0.087"/><rect x="1032" y="580" width="48" height="48" rx="12" fill="#B8F56F" fill-opacity="0.087"/><rect x="1032" y="644" width="48" height="48" rx="12" fill="#B8F56F" fill-opacity="0.087"/><rect x="1032" y="708" width="48" height="48" rx="12" fill="#B8F56F" fill-opacity="0.087"/><rect x="1032" y="772" width="48" height="48" rx="12" fill="#B8F56F" fill-opacity="0.087"/><rect x="1032" y="836" width="48" height="48" rx="12" fill="#B8F56F" fill-opacity="0.087"/><rect x="1032" y="900" width="48" height="48" rx="12" fill="#B8F56F" fill-opacity="0.087"/><rect x="1032" y="964" width="48" height="48" rx="12" fill="#B8F56F" fill-opacity="0.087"/><rect x="1032" y="1028" width="48" height="48" rx="12" fill="#131B16" fill-opacity="1.000"/><rect x="1096" y="4" width="48" height="48" rx="12" fill="#131B16" fill-opacity="1.000"/><rect x="1096" y="68" width="48" height="48" rx="12" fill="#131B16" fill-opacity="1.000"/><rect x="1096" y="132" width="48" height="48" rx="12" fill="#B8F56F" fill-opacity="0.080"/><rect x="1096" y="196" width="48" height="48" rx="12" fill="#B8F56F" fill-opacity="0.080"/><rect x="1096" y="260" width="48" height="48" rx="12" fill="#B8F56F" fill-opacity="0.080"/><rect x="1096" y="324" width="48" height="48" rx="12" fill="#B8F56F" fill-opacity="0.080"/><rect x="1096" y="388" width="48" height="48" rx="12" fill="#B8F56F" fill-opacity="0.080"/><rect x="1096" y="452" width="48" height="48" rx="12" fill="#B8F56F" fill-opacity="0.080"/><rect x="1096" y="516" width="48" height="48" rx="12" fill="#B8F56F" fill-opacity="0.080"/><rect x="1096" y="580" width="48" height="48" rx="12" fill="#B8F56F" fill-opacity="0.080"/><rect x="1096" y="644" width="48" height="48" rx="12" fill="#B8F56F" fill-opacity="0.080"/><rect x="1096" y="708" width="48" height="48" rx="12" fill="#B8F56F" fill-opacity="0.080"/><rect x="1096" y="772" width="48" height="48" rx="12" fill="#B8F56F" fill-opacity="0.080"/><rect x="1096" y="836" width="48" height="48" rx="12" fill="#B8F56F" fill-opacity="0.080"/><rect x="1096" y="900" width="48" height="48" rx="12" fill="#B8F56F" fill-opacity="0.080"/><rect x="1096" y="964" width="48" height="48" rx="12" fill="#B8F56F" fill-opacity="0.080"/><rect x="1160" y="4" width="48" height="48" rx="12" fill="#131B16" fill-opacity="1.000"/><rect x="1160" y="196" width="48" height="48" rx="12" fill="#131B16" fill-opacity="1.000"/><rect x="1160" y="260" width="48" height="48" rx="12" fill="#131B16" fill-opacity="1.000"/><rect x="1160" y="324" width="48" height="48" rx="12" fill="#131B16" fill-opacity="1.000"/><rect x="1160" y="388" width="48" height="48" rx="12" fill="#131B16" fill-opacity="1.000"/><rect x="1160" y="452" width="48" height="48" rx="12" fill="#B8F56F" fill-opacity="0.073"/><rect x="1160" y="516" width="48" height="48" rx="12" fill="#B8F56F" fill-opacity="0.073"/><rect x="1160" y="580" width="48" height="48" rx="12" fill="#B8F56F" fill-opacity="0.073"/><rect x="1160" y="644" width="48" height="48" rx="12" fill="#B8F56F" fill-opacity="0.073"/><rect x="1160" y="708" width="48" height="48" rx="12" fill="#131B16" fill-opacity="1.000"/><rect x="1160" y="772" width="48" height="48" rx="12" fill="#131B16" fill-opacity="1.000"/><rect x="1160" y="836" width="48" height="48" rx="12" fill="#131B16" fill-opacity="1.000"/><rect x="1160" y="900" width="48" height="48" rx="12" fill="#131B16" fill-opacity="1.000"/><rect x="1224" y="4" width="48" height="48" rx="12" fill="#131B16" fill-opacity="1.000"/><rect x="1224" y="68" width="48" height="48" rx="12" fill="#131B16" fill-opacity="1.000"/><rect x="1224" y="132" width="48" height="48" rx="12" fill="#131B16" fill-opacity="1.000"/><rect x="1224" y="196" width="48" height="48" rx="12" fill="#131B16" fill-opacity="1.000"/><rect x="1224" y="260" width="48" height="48" rx="12" fill="#131B16" fill-opacity="1.000"/><rect x="1224" y="324" width="48" height="48" rx="12" fill="#131B16" fill-opacity="1.000"/><rect x="1224" y="388" width="48" height="48" rx="12" fill="#B8F56F" fill-opacity="0.065"/><rect x="1224" y="452" width="48" height="48" rx="12" fill="#B8F56F" fill-opacity="0.065"/><rect x="1224" y="516" width="48" height="48" rx="12" fill="#B8F56F" fill-opacity="0.065"/><rect x="1224" y="580" width="48" height="48" rx="12" fill="#B8F56F" fill-opacity="0.065"/><rect x="1224" y="644" width="48" height="48" rx="12" fill="#B8F56F" fill-opacity="0.065"/><rect x="1224" y="708" width="48" height="48" rx="12" fill="#B8F56F" fill-opacity="0.065"/><rect x="1224" y="772" width="48" height="48" rx="12" fill="#131B16" fill-opacity="1.000"/><rect x="1224" y="836" width="48" height="48" rx="12" fill="#131B16" fill-opacity="1.000"/><rect x="1224" y="900" width="48" height="48" rx="12" fill="#131B16" fill-opacity="1.000"/><rect x="1224" y="964" width="48" height="48" rx="12" fill="#131B16" fill-opacity="1.000"/><rect x="1224" y="1028" width="48" height="48" rx="12" fill="#131B16" fill-opacity="1.000"/><rect x="1288" y="4" width="48" height="48" rx="12" fill="#131B16" fill-opacity="1.000"/><rect x="1288" y="68" width="48" height="48" rx="12" fill="#131B16" fill-opacity="1.000"/><rect x="1288" y="132" width="48" height="48" rx="12" fill="#131B16" fill-opacity="1.000"/><rect x="1288" y="196" width="48" height="48" rx="12" fill="#131B16" fill-opacity="1.000"/><rect x="1288" y="260" width="48" height="48" rx="12" fill="#131B16" fill-opacity="1.000"/><rect x="1288" y="324" width="48" height="48" rx="12" fill="#131B16" fill-opacity="1.000"/><rect x="1288" y="388" width="48" height="48" rx="12" fill="#131B16" fill-opacity="1.000"/><rect x="1288" y="452" width="48" height="48" rx="12" fill="#131B16" fill-opacity="1.000"/><rect x="1288" y="516" width="48" height="48" rx="12" fill="#131B16" fill-opacity="1.000"/><rect x="1288" y="580" width="48" height="48" rx="12" fill="#131B16" fill-opacity="1.000"/><rect x="1288" y="644" width="48" height="48" rx="12" fill="#131B16" fill-opacity="1.000"/><rect x="1288" y="708" width="48" height="48" rx="12" fill="#131B16" fill-opacity="1.000"/><rect x="1288" y="772" width="48" height="48" rx="12" fill="#131B16" fill-opacity="1.000"/><rect x="1288" y="836" width="48" height="48" rx="12" fill="#131B16" fill-opacity="1.000"/><rect x="1288" y="900" width="48" height="48" rx="12" fill="#131B16" fill-opacity="1.000"/><rect x="1288" y="964" width="48" height="48" rx="12" fill="#131B16" fill-opacity="1.000"/><rect x="1288" y="1028" width="48" height="48" rx="12" fill="#131B16" fill-opacity="1.000"/><rect x="1352" y="4" width="48" height="48" rx="12" fill="#131B16" fill-opacity="1.000"/><rect x="1352" y="68" width="48" height="48" rx="12" fill="#131B16" fill-opacity="1.000"/><rect x="1352" y="132" width="48" height="48" rx="12" fill="#131B16" fill-opacity="1.000"/><rect x="1352" y="196" width="48" height="48" rx="12" fill="#131B16" fill-opacity="1.000"/><rect x="1352" y="260" width="48" height="48" rx="12" fill="#131B16" fill-opacity="1.000"/><rect x="1352" y="324" width="48" height="48" rx="12" fill="#131B16" fill-opacity="1.000"/><rect x="1352" y="388" width="48" height="48" rx="12" fill="#1A261D" fill-opacity="1.000"/><rect x="1352" y="452" width="48" height="48" rx="12" fill="#131B16" fill-opacity="1.000"/><rect x="1352" y="516" width="48" height="48" rx="12" fill="#131B16" fill-opacity="1.000"/><rect x="1352" y="580" width="48" height="48" rx="12" fill="#131B16" fill-opacity="1.000"/><rect x="1352" y="644" width="48" height="48" rx="12" fill="#131B16" fill-opacity="1.000"/><rect x="1352" y="708" width="48" height="48" rx="12" fill="#131B16" fill-opacity="1.000"/><rect x="1352" y="772" width="48" height="48" rx="12" fill="#131B16" fill-opacity="1.000"/><rect x="1352" y="836" width="48" height="48" rx="12" fill="#131B16" fill-opacity="1.000"/><rect x="1352" y="900" width="48" height="48" rx="12" fill="#131B16" fill-opacity="1.000"/><rect x="1352" y="964" width="48" height="48" rx="12" fill="#131B16" fill-opacity="1.000"/><rect x="1352" y="1028" width="48" height="48" rx="12" fill="#131B16" fill-opacity="1.000"/><rect x="1416" y="4" width="48" height="48" rx="12" fill="#131B16" fill-opacity="1.000"/><rect x="1416" y="68" width="48" height="48" rx="12" fill="#131B16" fill-opacity="1.000"/><rect x="1416" y="132" width="48" height="48" rx="12" fill="#131B16" fill-opacity="1.000"/><rect x="1416" y="196" width="48" height="48" rx="12" fill="#131B16" fill-opacity="1.000"/><rect x="1416" y="260" width="48" height="48" rx="12" fill="#131B16" fill-opacity="1.000"/><rect x="1416" y="324" width="48" height="48" rx="12" fill="#131B16" fill-opacity="1.000"/><rect x="1416" y="388" width="48" height="48" rx="12" fill="#131B16" fill-opacity="1.000"/><rect x="1416" y="452" width="48" height="48" rx="12" fill="#131B16" fill-opacity="1.000"/><rect x="1416" y="516" width="48" height="48" rx="12" fill="#131B16" fill-opacity="1.000"/><rect x="1416" y="580" width="48" height="48" rx="12" fill="#131B16" fill-opacity="1.000"/><rect x="1416" y="644" width="48" height="48" rx="12" fill="#131B16" fill-opacity="1.000"/><rect x="1416" y="708" width="48" height="48" rx="12" fill="#131B16" fill-opacity="1.000"/><rect x="1416" y="772" width="48" height="48" rx="12" fill="#131B16" fill-opacity="1.000"/><rect x="1416" y="836" width="48" height="48" rx="12" fill="#131B16" fill-opacity="1.000"/><rect x="1416" y="900" width="48" height="48" rx="12" fill="#131B16" fill-opacity="1.000"/><rect x="1416" y="964" width="48" height="48" rx="12" fill="#131B16" fill-opacity="1.000"/><rect x="1416" y="1028" width="48" height="48" rx="12" fill="#1A261D" fill-opacity="1.000"/><rect x="1480" y="4" width="48" height="48" rx="12" fill="#131B16" fill-opacity="1.000"/><rect x="1480" y="68" width="48" height="48" rx="12" fill="#131B16" fill-opacity="1.000"/><rect x="1480" y="132" width="48" height="48" rx="12" fill="#131B16" fill-opacity="1.000"/><rect x="1480" y="196" width="48" height="48" rx="12" fill="#1A261D" fill-opacity="1.000"/><rect x="1480" y="260" width="48" height="48" rx="12" fill="#131B16" fill-opacity="1.000"/><rect x="1480" y="324" width="48" height="48" rx="12" fill="#131B16" fill-opacity="1.000"/><rect x="1480" y="388" width="48" height="48" rx="12" fill="#131B16" fill-opacity="1.000"/><rect x="1480" y="452" width="48" height="48" rx="12" fill="#131B16" fill-opacity="1.000"/><rect x="1480" y="516" width="48" height="48" rx="12" fill="#131B16" fill-opacity="1.000"/><rect x="1480" y="580" width="48" height="48" rx="12" fill="#131B16" fill-opacity="1.000"/><rect x="1480" y="644" width="48" height="48" rx="12" fill="#131B16" fill-opacity="1.000"/><rect x="1480" y="708" width="48" height="48" rx="12" fill="#131B16" fill-opacity="1.000"/><rect x="1480" y="772" width="48" height="48" rx="12" fill="#131B16" fill-opacity="1.000"/><rect x="1480" y="836" width="48" height="48" rx="12" fill="#1A261D" fill-opacity="1.000"/><rect x="1480" y="900" width="48" height="48" rx="12" fill="#131B16" fill-opacity="1.000"/><rect x="1480" y="964" width="48" height="48" rx="12" fill="#131B16" fill-opacity="1.000"/><rect x="1480" y="1028" width="48" height="48" rx="12" fill="#131B16" fill-opacity="1.000"/><rect x="1544" y="4" width="48" height="48" rx="12" fill="#131B16" fill-opacity="1.000"/><rect x="1544" y="68" width="48" height="48" rx="12" fill="#131B16" fill-opacity="1.000"/><rect x="1544" y="132" width="48" height="48" rx="12" fill="#1A261D" fill-opacity="1.000"/><rect x="1544" y="196" width="48" height="48" rx="12" fill="#131B16" fill-opacity="1.000"/><rect x="1544" y="260" width="48" height="48" rx="12" fill="#131B16" fill-opacity="1.000"/><rect x="1544" y="324" width="48" height="48" rx="12" fill="#131B16" fill-opacity="1.000"/><rect x="1544" y="388" width="48" height="48" rx="12" fill="#131B16" fill-opacity="1.000"/><rect x="1544" y="452" width="48" height="48" rx="12" fill="#131B16" fill-opacity="1.000"/><rect x="1544" y="516" width="48" height="48" rx="12" fill="#131B16" fill-opacity="1.000"/><rect x="1544" y="580" width="48" height="48" rx="12" fill="#131B16" fill-opacity="1.000"/><rect x="1544" y="644" width="48" height="48" rx="12" fill="#131B16" fill-opacity="1.000"/><rect x="1544" y="708" width="48" height="48" rx="12" fill="#1A261D" fill-opacity="1.000"/><rect x="1544" y="772" width="48" height="48" rx="12" fill="#131B16" fill-opacity="1.000"/><rect x="1544" y="836" width="48" height="48" rx="12" fill="#131B16" fill-opacity="1.000"/><rect x="1544" y="900" width="48" height="48" rx="12" fill="#131B16" fill-opacity="1.000"/><rect x="1544" y="964" width="48" height="48" rx="12" fill="#131B16" fill-opacity="1.000"/><rect x="1544" y="1028" width="48" height="48" rx="12" fill="#1A261D" fill-opacity="1.000"/><rect x="1608" y="4" width="48" height="48" rx="12" fill="#131B16" fill-opacity="1.000"/><rect x="1608" y="68" width="48" height="48" rx="12" fill="#131B16" fill-opacity="1.000"/><rect x="1608" y="132" width="48" height="48" rx="12" fill="#131B16" fill-opacity="1.000"/><rect x="1608" y="196" width="48" height="48" rx="12" fill="#131B16" fill-opacity="1.000"/><rect x="1608" y="260" width="48" height="48" rx="12" fill="#131B16" fill-opacity="1.000"/><rect x="1608" y="324" width="48" height="48" rx="12" fill="#131B16" fill-opacity="1.000"/><rect x="1608" y="388" width="48" height="48" rx="12" fill="#131B16" fill-opacity="1.000"/><rect x="1608" y="452" width="48" height="48" rx="12" fill="#131B16" fill-opacity="1.000"/><rect x="1608" y="516" width="48" height="48" rx="12" fill="#131B16" fill-opacity="1.000"/><rect x="1608" y="580" width="48" height="48" rx="12" fill="#131B16" fill-opacity="1.000"/><rect x="1608" y="644" width="48" height="48" rx="12" fill="#131B16" fill-opacity="1.000"/><rect x="1608" y="708" width="48" height="48" rx="12" fill="#131B16" fill-opacity="1.000"/><rect x="1608" y="772" width="48" height="48" rx="12" fill="#131B16" fill-opacity="1.000"/><rect x="1608" y="836" width="48" height="48" rx="12" fill="#131B16" fill-opacity="1.000"/><rect x="1608" y="900" width="48" height="48" rx="12" fill="#131B16" fill-opacity="1.000"/><rect x="1608" y="964" width="48" height="48" rx="12" fill="#131B16" fill-opacity="1.000"/><rect x="1608" y="1028" width="48" height="48" rx="12" fill="#131B16" fill-opacity="1.000"/><rect x="1672" y="4" width="48" height="48" rx="12" fill="#131B16" fill-opacity="1.000"/><rect x="1672" y="68" width="48" height="48" rx="12" fill="#131B16" fill-opacity="1.000"/><rect x="1672" y="132" width="48" height="48" rx="12" fill="#131B16" fill-opacity="1.000"/><rect x="1672" y="196" width="48" height="48" rx="12" fill="#131B16" fill-opacity="1.000"/><rect x="1672" y="260" width="48" height="48" rx="12" fill="#1A261D" fill-opacity="1.000"/><rect x="1672" y="324" width="48" height="48" rx="12" fill="#131B16" fill-opacity="1.000"/><rect x="1672" y="388" width="48" height="48" rx="12" fill="#131B16" fill-opacity="1.000"/><rect x="1672" y="452" width="48" height="48" rx="12" fill="#131B16" fill-opacity="1.000"/><rect x="1672" y="516" width="48" height="48" rx="12" fill="#131B16" fill-opacity="1.000"/><rect x="1672" y="580" width="48" height="48" rx="12" fill="#131B16" fill-opacity="1.000"/><rect x="1672" y="644" width="48" height="48" rx="12" fill="#131B16" fill-opacity="1.000"/><rect x="1672" y="708" width="48" height="48" rx="12" fill="#131B16" fill-opacity="1.000"/><rect x="1672" y="772" width="48" height="48" rx="12" fill="#1A261D" fill-opacity="1.000"/><rect x="1672" y="836" width="48" height="48" rx="12" fill="#131B16" fill-opacity="1.000"/><rect x="1672" y="900" width="48" height="48" rx="12" fill="#131B16" fill-opacity="1.000"/><rect x="1672" y="964" width="48" height="48" rx="12" fill="#131B16" fill-opacity="1.000"/><rect x="1672" y="1028" width="48" height="48" rx="12" fill="#131B16" fill-opacity="1.000"/><rect x="1736" y="4" width="48" height="48" rx="12" fill="#1A261D" fill-opacity="1.000"/><rect x="1736" y="68" width="48" height="48" rx="12" fill="#131B16" fill-opacity="1.000"/><rect x="1736" y="132" width="48" height="48" rx="12" fill="#131B16" fill-opacity="1.000"/><rect x="1736" y="196" width="48" height="48" rx="12" fill="#131B16" fill-opacity="1.000"/><rect x="1736" y="260" width="48" height="48" rx="12" fill="#131B16" fill-opacity="1.000"/><rect x="1736" y="324" width="48" height="48" rx="12" fill="#131B16" fill-opacity="1.000"/><rect x="1736" y="388" width="48" height="48" rx="12" fill="#131B16" fill-opacity="1.000"/><rect x="1736" y="452" width="48" height="48" rx="12" fill="#131B16" fill-opacity="1.000"/><rect x="1736" y="516" width="48" height="48" rx="12" fill="#131B16" fill-opacity="1.000"/><rect x="1736" y="580" width="48" height="48" rx="12" fill="#131B16" fill-opacity="1.000"/><rect x="1736" y="644" width="48" height="48" rx="12" fill="#131B16" fill-opacity="1.000"/><rect x="1736" y="708" width="48" height="48" rx="12" fill="#131B16" fill-opacity="1.000"/><rect x="1736" y="772" width="48" height="48" rx="12" fill="#131B16" fill-opacity="1.000"/><rect x="1736" y="836" width="48" height="48" rx="12" fill="#131B16" fill-opacity="1.000"/><rect x="1736" y="900" width="48" height="48" rx="12" fill="#131B16" fill-opacity="1.000"/><rect x="1736" y="964" width="48" height="48" rx="12" fill="#131B16" fill-opacity="1.000"/><rect x="1736" y="1028" width="48" height="48" rx="12" fill="#131B16" fill-opacity="1.000"/><rect x="1800" y="4" width="48" height="48" rx="12" fill="#131B16" fill-opacity="1.000"/><rect x="1800" y="68" width="48" height="48" rx="12" fill="#131B16" fill-opacity="1.000"/><rect x="1800" y="132" width="48" height="48" rx="12" fill="#131B16" fill-opacity="1.000"/><rect x="1800" y="196" width="48" height="48" rx="12" fill="#131B16" fill-opacity="1.000"/><rect x="1800" y="260" width="48" height="48" rx="12" fill="#131B16" fill-opacity="1.000"/><rect x="1800" y="324" width="48" height="48" rx="12" fill="#131B16" fill-opacity="1.000"/><rect x="1800" y="388" width="48" height="48" rx="12" fill="#131B16" fill-opacity="1.000"/><rect x="1800" y="452" width="48" height="48" rx="12" fill="#131B16" fill-opacity="1.000"/><rect x="1800" y="516" width="48" height="48" rx="12" fill="#131B16" fill-opacity="1.000"/><rect x="1800" y="580" width="48" height="48" rx="12" fill="#131B16" fill-opacity="1.000"/><rect x="1800" y="644" width="48" height="48" rx="12" fill="#131B16" fill-opacity="1.000"/><rect x="1800" y="708" width="48" height="48" rx="12" fill="#131B16" fill-opacity="1.000"/><rect x="1800" y="772" width="48" height="48" rx="12" fill="#131B16" fill-opacity="1.000"/><rect x="1800" y="836" width="48" height="48" rx="12" fill="#131B16" fill-opacity="1.000"/><rect x="1800" y="900" width="48" height="48" rx="12" fill="#131B16" fill-opacity="1.000"/><rect x="1800" y="964" width="48" height="48" rx="12" fill="#131B16" fill-opacity="1.000"/><rect x="1800" y="1028" width="48" height="48" rx="12" fill="#131B16" fill-opacity="1.000"/><rect x="1864" y="4" width="48" height="48" rx="12" fill="#1A261D" fill-opacity="1.000"/><rect x="1864" y="68" width="48" height="48" rx="12" fill="#131B16" fill-opacity="1.000"/><rect x="1864" y="132" width="48" height="48" rx="12" fill="#131B16" fill-opacity="1.000"/><rect x="1864" y="196" width="48" height="48" rx="12" fill="#1A261D" fill-opacity="1.000"/><rect x="1864" y="260" width="48" height="48" rx="12" fill="#131B16" fill-opacity="1.000"/><rect x="1864" y="324" width="48" height="48" rx="12" fill="#131B16" fill-opacity="1.000"/><rect x="1864" y="388" width="48" height="48" rx="12" fill="#131B16" fill-opacity="1.000"/><rect x="1864" y="452" width="48" height="48" rx="12" fill="#131B16" fill-opacity="1.000"/><rect x="1864" y="516" width="48" height="48" rx="12" fill="#131B16" fill-opacity="1.000"/><rect x="1864" y="580" width="48" height="48" rx="12" fill="#131B16" fill-opacity="1.000"/><rect x="1864" y="644" width="48" height="48" rx="12" fill="#1A261D" fill-opacity="1.000"/><rect x="1864" y="708" width="48" height="48" rx="12" fill="#131B16" fill-opacity="1.000"/><rect x="1864" y="772" width="48" height="48" rx="12" fill="#131B16" fill-opacity="1.000"/><rect x="1864" y="836" width="48" height="48" rx="12" fill="#131B16" fill-opacity="1.000"/><rect x="1864" y="900" width="48" height="48" rx="12" fill="#131B16" fill-opacity="1.000"/><rect x="1864" y="964" width="48" height="48" rx="12" fill="#131B16" fill-opacity="1.000"/><rect x="1864" y="1028" width="48" height="48" rx="12" fill="#131B16" fill-opacity="1.000"/></svg>